<mxfile host="app.diagrams.net" modified="2024-02-14T18:17:46.116Z" agent="Mozilla/5.0 (Macintosh; Intel Mac OS X 10_15_7) AppleWebKit/537.36 (KHTML, like Gecko) Chrome/120.0.0.0 Safari/537.36" etag="A2CWa4EMoqQcX4oRs5_9" version="23.1.2" type="device">
  <diagram name="Page-1" id="9bWRrc22yMHnvZv0xTFx">
    <mxGraphModel dx="1242" dy="750" grid="1" gridSize="10" guides="1" tooltips="1" connect="1" arrows="1" fold="1" page="1" pageScale="1" pageWidth="850" pageHeight="1100" math="0" shadow="0">
      <root>
        <mxCell id="0" />
        <mxCell id="1" parent="0" />
        <mxCell id="xZ-D4h-evJgvQiWV0PeG-11" style="edgeStyle=orthogonalEdgeStyle;rounded=0;orthogonalLoop=1;jettySize=auto;html=1;exitX=0.5;exitY=1;exitDx=0;exitDy=0;entryX=0.5;entryY=0;entryDx=0;entryDy=0;startArrow=classic;startFill=1;" edge="1" parent="1" source="xZ-D4h-evJgvQiWV0PeG-1" target="xZ-D4h-evJgvQiWV0PeG-10">
          <mxGeometry relative="1" as="geometry" />
        </mxCell>
        <mxCell id="xZ-D4h-evJgvQiWV0PeG-1" value="Flutter App (Dart)" style="rounded=1;whiteSpace=wrap;html=1;" vertex="1" parent="1">
          <mxGeometry x="360" y="360" width="120" height="60" as="geometry" />
        </mxCell>
        <mxCell id="xZ-D4h-evJgvQiWV0PeG-4" style="edgeStyle=orthogonalEdgeStyle;rounded=0;orthogonalLoop=1;jettySize=auto;html=1;exitX=1;exitY=0.5;exitDx=0;exitDy=0;exitPerimeter=0;entryX=0;entryY=0.5;entryDx=0;entryDy=0;startArrow=classic;startFill=1;" edge="1" parent="1" source="xZ-D4h-evJgvQiWV0PeG-3" target="xZ-D4h-evJgvQiWV0PeG-1">
          <mxGeometry relative="1" as="geometry" />
        </mxCell>
        <mxCell id="xZ-D4h-evJgvQiWV0PeG-3" value="Local Store (SQLite)" style="shape=cylinder3;whiteSpace=wrap;html=1;boundedLbl=1;backgroundOutline=1;size=15;" vertex="1" parent="1">
          <mxGeometry x="220" y="350" width="60" height="80" as="geometry" />
        </mxCell>
        <mxCell id="xZ-D4h-evJgvQiWV0PeG-6" value="" style="endArrow=classic;html=1;rounded=0;startArrow=classic;startFill=1;" edge="1" parent="1">
          <mxGeometry width="50" height="50" relative="1" as="geometry">
            <mxPoint x="419.5" y="360" as="sourcePoint" />
            <mxPoint x="419.5" y="260" as="targetPoint" />
          </mxGeometry>
        </mxCell>
        <mxCell id="xZ-D4h-evJgvQiWV0PeG-7" value="Backup / Restore" style="edgeLabel;html=1;align=center;verticalAlign=middle;resizable=0;points=[];" vertex="1" connectable="0" parent="xZ-D4h-evJgvQiWV0PeG-6">
          <mxGeometry x="-0.02" y="4" relative="1" as="geometry">
            <mxPoint x="1" as="offset" />
          </mxGeometry>
        </mxCell>
        <mxCell id="xZ-D4h-evJgvQiWV0PeG-9" value="File &lt;br&gt;Export" style="shape=cylinder3;whiteSpace=wrap;html=1;boundedLbl=1;backgroundOutline=1;size=15;" vertex="1" parent="1">
          <mxGeometry x="390" y="180" width="60" height="80" as="geometry" />
        </mxCell>
        <mxCell id="xZ-D4h-evJgvQiWV0PeG-10" value="iOS Watch App (Objective C)" style="rounded=1;whiteSpace=wrap;html=1;" vertex="1" parent="1">
          <mxGeometry x="360" y="480" width="120" height="60" as="geometry" />
        </mxCell>
      </root>
    </mxGraphModel>
  </diagram>
</mxfile>
